<svg xmlns="http://www.w3.org/2000/svg" viewBox="0 0 600 450" width="600" height="450">
  <defs>
    <linearGradient id="bg" x1="0%" y1="0%" x2="100%" y2="100%">
      <stop offset="0%" style="stop-color:#0d1117"/>
      <stop offset="100%" style="stop-color:#161b22"/>
    </linearGradient>
    <linearGradient id="shine" x1="0%" y1="0%" x2="100%" y2="100%">
      <stop offset="0%" style="stop-color:#0ea5e9;stop-opacity:0.25"/>
      <stop offset="50%" style="stop-color:#0ea5e9;stop-opacity:0.04"/>
      <stop offset="100%" style="stop-color:#0ea5e9;stop-opacity:0.15"/>
    </linearGradient>
  </defs>
  <rect width="600" height="450" fill="url(#bg)"/>
  <rect x="225" y="55" width="150" height="280" rx="14" fill="url(#shine)" stroke="#0ea5e9" stroke-width="2.5" opacity="0.9"/>
  <line x1="252" y1="80" x2="318" y2="146" stroke="#7dd3fc" stroke-width="3" opacity="0.5" stroke-linecap="round"/>
  <line x1="278" y1="74" x2="350" y2="146" stroke="#7dd3fc" stroke-width="2" opacity="0.35" stroke-linecap="round"/>
  <path d="M 470 95 l 4 12 12 4 -12 4 -4 12 -4 -12 -12 -4 12 -4 z" fill="#7dd3fc" opacity="0.7"/>
  <path d="M 140 300 l 3 9 9 3 -9 3 -3 9 -3 -9 -9 -3 9 -3 z" fill="#7dd3fc" opacity="0.5"/>
  <text x="300" y="395" font-family="Arial, sans-serif" font-size="18" font-weight="600" fill="#0ea5e9" text-anchor="middle" letter-spacing="2">TEMPERED GLASS</text>
  <text x="300" y="420" font-family="Arial, sans-serif" font-size="11" fill="#4a6fa5" text-anchor="middle" letter-spacing="2">9H SCREEN PROTECTION</text>
</svg>
