<svg xmlns="http://www.w3.org/2000/svg" viewBox="0 0 600 350" width="600" height="350" role="img" aria-label="Apple foldable iPhone concept folding device">
  <defs>
    <linearGradient id="bg25" x1="0%" y1="0%" x2="100%" y2="100%">
      <stop offset="0%" stop-color="#0b1220"/>
      <stop offset="58%" stop-color="#123349"/>
      <stop offset="100%" stop-color="#0a5a8e"/>
    </linearGradient>
    <radialGradient id="glowA25" cx="50%" cy="50%" r="50%">
      <stop offset="0%" stop-color="#49b6fc" stop-opacity="0.55"/>
      <stop offset="100%" stop-color="#49b6fc" stop-opacity="0"/>
    </radialGradient>
    <linearGradient id="ink25" x1="0%" y1="0%" x2="0%" y2="100%">
      <stop offset="0%" stop-color="#ffffff"/>
      <stop offset="100%" stop-color="#cbd5e1"/>
    </linearGradient>
    <filter id="soft25" x="-50%" y="-50%" width="200%" height="200%">
      <feGaussianBlur stdDeviation="38"/>
    </filter>
  </defs>

  <rect width="600" height="350" fill="url(#bg25)"/>

  <!-- soft accent glows -->
  <circle cx="548" cy="103" r="150" fill="url(#glowA25)" filter="url(#soft25)"/>
  <circle cx="154" cy="326" r="120" fill="url(#glowA25)" opacity="0.5" filter="url(#soft25)"/>

  <!-- decorative pattern -->
  <circle cx="564" cy="175" r="34" fill="none" stroke="#49b6fc" stroke-width="2" opacity="0.18000000000000002"/>
  <circle cx="564" cy="175" r="68" fill="none" stroke="#49b6fc" stroke-width="2" opacity="0.16"/>
  <circle cx="564" cy="175" r="102" fill="none" stroke="#49b6fc" stroke-width="2" opacity="0.14"/>
  <circle cx="564" cy="175" r="136" fill="none" stroke="#49b6fc" stroke-width="2" opacity="0.12000000000000001"/>
  <circle cx="564" cy="175" r="170" fill="none" stroke="#49b6fc" stroke-width="2" opacity="0.1"/>
  <circle cx="564" cy="175" r="204" fill="none" stroke="#49b6fc" stroke-width="2" opacity="0.08000000000000002"/>

  <!-- large watermark icon -->
  <g transform="translate(372,150) scale(2.1)" opacity="0.08"><rect x="34" y="8" width="32" height="84" rx="9" fill="none" stroke="#49b6fc" stroke-width="4"/>
          <rect x="40" y="18" width="20" height="58" rx="2" fill="#49b6fc" opacity="0.35"/>
          <rect x="44" y="11" width="12" height="3" rx="1.5" fill="#49b6fc"/>
          <circle cx="50" cy="84" r="3" fill="#49b6fc"/></g>

  <!-- category pill -->
  <g transform="translate(40,38)">
    <rect width="100" height="34" rx="17" fill="#49b6fc" opacity="0.16"/>
    <rect width="100" height="34" rx="17" fill="none" stroke="#49b6fc" stroke-width="1" opacity="0.5"/>
    <g transform="translate(13,7) scale(0.20)"><rect x="34" y="8" width="32" height="84" rx="9" fill="none" stroke="#88cefb" stroke-width="4"/>
          <rect x="40" y="18" width="20" height="58" rx="2" fill="#88cefb" opacity="0.35"/>
          <rect x="44" y="11" width="12" height="3" rx="1.5" fill="#88cefb"/>
          <circle cx="50" cy="84" r="3" fill="#88cefb"/></g>
    <text x="38" y="23" font-family="'Segoe UI',Roboto,Arial,sans-serif" font-size="14" font-weight="700" letter-spacing="1.5" fill="#88cefb">PHONES</text>
  </g>

  <!-- icon badge -->
  <g transform="translate(40,120)">
    <rect width="64" height="64" rx="16" fill="#49b6fc" opacity="0.14"/>
    <rect width="64" height="64" rx="16" fill="none" stroke="#49b6fc" stroke-width="1.2" opacity="0.45"/>
    <g transform="translate(13,13) scale(0.38)"><rect x="34" y="8" width="32" height="84" rx="9" fill="none" stroke="#88cefb" stroke-width="4"/>
          <rect x="40" y="18" width="20" height="58" rx="2" fill="#88cefb" opacity="0.35"/>
          <rect x="44" y="11" width="12" height="3" rx="1.5" fill="#88cefb"/>
          <circle cx="50" cy="84" r="3" fill="#88cefb"/></g>
  </g>

  <!-- headline keyword -->
  <text x="42" y="232" font-family="'Segoe UI',Roboto,Arial,sans-serif" font-size="64" font-weight="800" letter-spacing="-1" fill="url(#ink25)">iPHONE</text>
  <rect x="44" y="248" width="64" height="5" rx="2.5" fill="#49b6fc"/>
  <text x="42" y="284" font-family="'Segoe UI',Roboto,Arial,sans-serif" font-size="17" font-weight="500" fill="#94a3b8">New phone news &amp; leaks</text>

  <!-- wordmark -->
  <text x="42" y="324" font-family="'Segoe UI',Roboto,Arial,sans-serif" font-size="13" font-weight="700" letter-spacing="3" fill="#49b6fc" opacity="0.85">F.AI.Z<tspan fill="#64748b" letter-spacing="3"> · TECH</tspan></text>
</svg>